#!OML:ASF I:\Actors\actors\Patient Classification 1\Patient 1\Session 1\Subject1.ASF
:FULLY-SPECIFIED
:DEGREES
1003
root 0.651731 17.4965 8.72916 5.0314 -0.78491 -9.20643
lowerback 2.32485 -0.00328109 5.22812
upperback -7.985 0.793842 4.98174
thorax -9.81437 0.218948 2.31318
lowerneck -9.57524 -1.88314 1.47587
upperneck 24.697 -3.12592 0.573567
head 9.32251 -1.2702 -0.390854
rclavicle 5.26779e-015 -3.53837e-014
rhumerus -2.76669 30.1686 -91.6408
rradius 90.6709
rwrist 58.401
rhand -36.5575 -69.1058
rfingers 7.12502
rthumb -9.64769 98.8649
lclavicle 5.26779e-015 -3.53837e-014
lhumerus 8.74357 -20.4526 76.937
lradius 61.6223
lwrist 34.9742
lhand -41.3975 -20.2461
lfingers 7.12502
lthumb -14.3147 9.2404
rfemur -5.0103 14.1556 25.738
rtibia 10.1861
rfoot -13.5293 -19.4983
rtoes -0.251399
lfemur -0.943046 -23.6712 -6.46021
ltibia 4.14175
lfoot -10.6969 31.0718
ltoes -8.80993
1004
root 0.659677 17.4781 8.76007 4.44495 -1.22375 -8.58022
lowerback 2.38201 -0.00673389 4.46799
upperback -8.41037 0.760663 4.91625
thorax -10.3272 0.254289 2.68648
lowerneck -9.24419 -1.8567 1.52985
upperneck 25.6202 -3.08178 0.425972
head 9.5825 -1.25112 -0.449422
rclavicle -1.78906e-015 -1.35174e-014
rhumerus -5.00389 30.7606 -94.1485
rradius 91.8679
rwrist 61.9817
rhand -37.8875 -70.3242
rfingers 7.12502
rthumb -10.9307 100.02
lclavicle -1.78906e-015 -1.35174e-014
lhumerus 7.38555 -20.5254 77.7255
lradius 61.1178
lwrist 34.6763
lhand -41.3226 -20.0026
lfingers 7.12502
lthumb -14.2425 9.48905
rfemur -4.29451 14.2313 25.1653
rtibia 10.2454
rfoot -13.7028 -19.3432
rtoes -0.80128
lfemur 0.19656 -24.0118 -7.84437
ltibia 4.00826
lfoot -10.9329 31.6998
ltoes -8.85003
1005
root 0.673438 17.4561 8.78837 3.79802 -1.61834 -7.94107
lowerback 2.34406 -0.0189239 3.72078
upperback -8.71473 0.699569 4.88611
thorax -10.6495 0.283475 3.08983
lowerneck -8.90298 -1.79502 1.55623
upperneck 26.355 -2.96635 0.245817
head 9.77667 -1.20777 -0.505844
rclavicle 9.54166e-015 -7.15625e-015
rhumerus -6.8422 31.8854 -95.7101
rradius 92.8272
rwrist 63.2135
rhand -40.2264 -72.1538
rfingers 7.12502
rthumb -13.186 101.717
lclavicle 9.54166e-015 -7.15625e-015
lhumerus 6.41327 -20.6242 78.3013
lradius 60.4277
lwrist 34.2906
lhand -41.2412 -19.9984
lfingers 7.12502
lthumb -14.1641 9.49878
rfemur -3.57631 14.1985 24.5608
rtibia 10.3931
rfoot -13.8936 -19.1146
rtoes -1.42325
lfemur 1.4484 -24.4437 -9.32243
ltibia 3.80249
lfoot -11.2273 32.3432
ltoes -8.53492
1006
root 0.693687 17.4401 8.81691 3.46685 -2.00179 -8.18196
lowerback 1.76323 0.0069233 3.96368
upperback -8.92608 0.737733 5.06883
thorax -10.5439 0.291211 3.1487
lowerneck -8.78795 -1.74421 1.51521
upperneck 27.0793 -2.90303 0.241665
head 10.0176 -1.17489 -0.498277
rclavicle -2.46493e-014 2.22639e-014
rhumerus -3.01949 35.0667 -94.7973
rradius 90.2358
rwrist 61.8588
rhand -38.0794 -74.0445
rfingers 7.12502
rthumb -11.1158 103.73
lclavicle -2.46493e-014 2.22639e-014
lhumerus 5.89413 -20.759 78.6007
lradius 59.611
lwrist 34.0898
lhand -41.143 -20.2339
lfingers 7.12502
lthumb -14.0695 9.26988
rfemur -3.2528 14.1425 24.8856
rtibia 10.6667
rfoot -14.0226 -18.7729
rtoes -2.07581
lfemur 2.39419 -24.7218 -9.57526
ltibia 3.49462
lfoot -11.6065 32.8916
ltoes -7.92112
1007
root 0.715442 17.4295 8.82764 3.29486 -2.55155 -8.68643
lowerback 1.07035 0.121904 4.42219
upperback -9.02131 0.896779 5.3409
thorax -10.2448 0.345311 3.16658
lowerneck -9.00382 -1.74508 1.37663
upperneck 27.8378 -2.92698 0.328407
head 10.3417 -1.17999 -0.455924
rclavicle -1.55052e-014 -1.90833e-014
rhumerus -3.32837 34.1255 -96.6314
rradius 88.919
rwrist 63.0614
rhand -38.4327 -73.8278
rfingers 7.12502
rthumb -11.4566 103.495
lclavicle -1.55052e-014 -1.90833e-014
lhumerus 5.77046 -20.7307 78.9073
lradius 58.7689
lwrist 34.1125
lhand -41.1993 -20.385
lfingers 7.12502
lthumb -14.1237 9.115
rfemur -3.28774 14.425 25.4601
rtibia 11.1667
rfoot -14.203 -18.5509
rtoes -2.16804
lfemur 3.03268 -24.8577 -9.32816
ltibia 3.28397
lfoot -11.9886 33.4826
ltoes -7.21542
1008
root 0.735205 17.4224 8.8254 3.05184 -3.14349 -8.84936
lowerback 0.185007 0.207471 4.3156
upperback -8.79656 0.939665 5.68267
thorax -9.47292 0.395185 3.5734
lowerneck -9.33352 -1.71013 1.17114
upperneck 28.2021 -2.84278 0.294303
head 10.5445 -1.16067 -0.430376
rclavicle 1.98785e-015 -6.44062e-014
rhumerus -1.62375 34.55 -96.5157
rradius 86.6043
rwrist 62.9264
rhand -38.5092 -73.9542
rfingers 7.12502
rthumb -11.5304 103.617
lclavicle 1.98785e-015 -6.44062e-014
lhumerus 6.12533 -20.2066 79.2727
lradius 57.9657
lwrist 34.2599
lhand -41.271 -20.4609
lfingers 7.12502
lthumb -14.1928 9.03428
rfemur -3.31897 14.8835 25.6595
rtibia 11.6862
rfoot -14.3745 -18.4925
rtoes -2.41842
lfemur 3.56079 -24.7906 -9.41517
ltibia 3.22438
lfoot -12.1801 33.8927
ltoes -6.85124
1009
root 0.754108 17.4169 8.83638 2.68574 -3.50125 -8.64051
lowerback -0.255028 0.318085 4.16782
upperback -8.92419 1.05516 5.71551
thorax -9.36044 0.465672 3.68344
lowerneck -9.27269 -1.76793 0.996513
upperneck 28.7545 -2.91678 0.338689
head 10.743 -1.20217 -0.396813
rclavicle -1.39149e-015 -7.63333e-014
rhumerus 0.556654 34.3259 -96.4029
rradius 83.2163
rwrist 63.3439
rhand -38.3048 -74.0663
rfingers 7.12502
rthumb -11.3332 103.74
lclavicle -1.39149e-015 -7.63333e-014
lhumerus 5.84095 -20.1286 79.8579
lradius 57.2709
lwrist 34.3825
lhand -41.4599 -20.7068
lfingers 7.12502
lthumb -14.3748 8.77545
rfemur -2.95434 14.9852 25.4811
rtibia 11.7966
rfoot -14.4 -18.347
rtoes -3.02681
lfemur 4.11696 -24.4715 -10.0084
ltibia 3.29468
lfoot -12.2833 33.8399
ltoes -6.91797
